<?xml version="1.0" encoding="iso-8859-1"?>
<!-- Uploaded to: SVG Repo, www.svgrepo.com, Generator: SVG Repo Mixer Tools -->
<svg version="1.1" id="Layer_1" xmlns="http://www.w3.org/2000/svg" xmlns:xlink="http://www.w3.org/1999/xlink" 
	 viewBox="0 0 512 512" xml:space="preserve">
<path style="fill:#F9C900;" d="M191.147,510.277l-20.48-15.36l-20.48,15.36c-5.626,4.219-13.653,0.205-13.653-6.827v-51.184H204.8
	v51.184C204.8,510.483,196.772,514.497,191.147,510.277z"/>
<rect x="136.533" y="452.267" style="fill:#F9AA0C;" width="68.267" height="25.6"/>
<path style="fill:#D6CABB;" d="M128,8.533h290.133v443.733H128c-28.277,0-51.2-22.923-51.2-51.2V59.733
	C76.8,31.456,99.723,8.533,128,8.533z"/>
<path style="fill:#3AB0B0;" d="M68.267,59.733V409.6c0,28.277,22.923,51.2,51.2,51.2H153.6V119.467H128
	C95.063,119.467,68.267,92.67,68.267,59.733z"/>
<path style="fill:#40CACF;" d="M136.533,460.8H435.2c4.713,0,8.533-3.821,8.533-8.533V110.933c0-4.713-3.821-8.533-8.533-8.533
	H136.533V460.8z"/>
<path style="fill:#F1EDE8;" d="M128,93.867h290.133V25.6H128c-18.851,0-34.133,15.282-34.133,34.133l0,0
	C93.867,78.585,109.149,93.867,128,93.867z"/>
<path style="fill:#F9AA0C;" d="M435.2,102.4H128c-23.526,0-42.667-19.14-42.667-42.667S104.474,17.067,128,17.067h307.2
	c4.713,0,8.533-3.821,8.533-8.533S439.913,0,435.2,0H128C95.063,0,68.267,26.797,68.267,59.733S95.063,119.467,128,119.467h315.733
	v-8.533C443.733,106.221,439.913,102.4,435.2,102.4z"/>
<g>
	<path style="fill:#3AB0B0;" d="M366.933,435.2h-153.6c-4.713,0-8.533-3.821-8.533-8.533c0-18.821-15.312-34.133-34.133-34.133
		c-4.713,0-8.533-3.821-8.533-8.533V196.267c0-4.713,3.821-8.533,8.533-8.533c18.821,0,34.133-15.312,34.133-34.133
		c0-4.713,3.821-8.533,8.533-8.533h153.6c4.713,0,8.533,3.821,8.533,8.533c0,18.821,15.312,34.133,34.133,34.133
		c4.713,0,8.533,3.821,8.533,8.533V384c0,4.713-3.821,8.533-8.533,8.533c-18.821,0-34.133,15.312-34.133,34.133
		C375.467,431.379,371.646,435.2,366.933,435.2z M221.155,418.133H359.11c3.606-21.408,20.547-38.349,41.955-41.955v-172.09
		c-21.408-3.606-38.349-20.547-41.955-41.955H221.155c-3.606,21.408-20.547,38.349-41.955,41.955v172.089
		C200.608,379.785,217.549,396.725,221.155,418.133z"/>
	<path style="fill:#3AB0B0;" d="M281.6,409.6c-14.115,0-25.6-11.485-25.6-25.6v-93.867h-17.067c-14.115,0-25.6-11.485-25.6-25.6
		v-17.067c0-14.115,11.485-25.6,25.6-25.6H256v-25.6c0-14.115,11.485-25.6,25.6-25.6h17.067c14.115,0,25.6,11.485,25.6,25.6v25.6
		h17.067c14.115,0,25.6,11.485,25.6,25.6v17.067c0,14.115-11.485,25.6-25.6,25.6h-17.067V384c0,14.115-11.485,25.6-25.6,25.6H281.6z
		"/>
</g>
<path style="fill:#F9C900;" d="M341.333,238.933H307.2v-42.667c0-4.713-3.821-8.533-8.533-8.533H281.6
	c-4.713,0-8.533,3.821-8.533,8.533v42.667h-34.133c-4.713,0-8.533,3.821-8.533,8.533v17.067c0,4.713,3.821,8.533,8.533,8.533h34.133
	V384c0,4.713,3.821,8.533,8.533,8.533h17.067c4.713,0,8.533-3.821,8.533-8.533V273.067h34.133c4.713,0,8.533-3.821,8.533-8.533
	v-17.067C349.867,242.754,346.046,238.933,341.333,238.933z"/>
<polygon style="fill:#F9AA0C;" points="281.6,384 281.6,264.533 238.933,264.533 238.933,247.467 281.6,247.467 281.6,196.267 
	298.667,196.267 298.667,247.467 341.333,247.467 341.333,264.533 298.667,264.533 298.667,384 "/>
<g>
	<rect x="221.867" y="42.667" style="fill:#E3DCD2;" width="196.267" height="8.533"/>
	<rect x="162.133" y="68.267" style="fill:#E3DCD2;" width="256" height="8.533"/>
</g>
</svg>