<?xml version="1.0" encoding="iso-8859-1"?>
<!-- Uploaded to: SVG Repo, www.svgrepo.com, Generator: SVG Repo Mixer Tools -->
<svg height="800px" width="800px" version="1.1" id="Layer_1" xmlns="http://www.w3.org/2000/svg" xmlns:xlink="http://www.w3.org/1999/xlink" 
	 viewBox="0 0 392.542 392.542" xml:space="preserve">
<path style="fill:#56ACE0;" d="M297.087,85.924H95.648c-6.012,0-10.925,4.848-10.925,10.925v262.982
	c0,6.012,4.848,10.925,10.925,10.925h201.374c6.012,0,10.925-4.848,10.925-10.925V96.849
	C308.012,90.772,303.163,85.924,297.087,85.924z"/>
<path style="fill:#FFFFFF;" d="M106.638,348.905h179.588V107.645h-20.493c-1.552,4.202-5.495,7.176-10.214,7.176H137.345
	c-4.719,0-8.727-3.038-10.214-7.176h-20.493V348.905z"/>
<path style="fill:#FFC10D;" d="M148.27,93.099h96.388V60.647h-27.927c-9.503-0.388-13.511-9.891-8.986-17.131
	c3.814-5.495,3.168-12.8-1.552-17.455c-5.236-5.236-14.287-5.236-19.459,0c-4.719,4.719-5.43,12.024-1.616,17.519
	c5.042,5.43,0.646,16.873-8.986,17.131h-27.927L148.27,93.099L148.27,93.099z"/>
<g>
	<path style="fill:#194F82;" d="M258.234,169.253H134.63c-6.012,0-10.925-4.848-10.925-10.925c0-6.012,4.848-10.925,10.925-10.925
		h123.669c6.012,0,10.925,4.848,10.925,10.925C269.159,164.34,264.246,169.253,258.234,169.253z"/>
	<path style="fill:#194F82;" d="M258.234,221.746H134.63c-6.012,0-10.925-4.848-10.925-10.925c0-6.012,4.848-10.925,10.925-10.925
		h123.669c6.012,0,10.925,4.848,10.925,10.925S264.246,221.746,258.234,221.746z"/>
	<path style="fill:#194F82;" d="M258.234,274.303H134.63c-6.012,0-10.925-4.848-10.925-10.925c0-6.012,4.848-10.925,10.925-10.925
		h123.669c6.012,0,10.925,4.848,10.925,10.925C269.159,269.39,264.246,274.303,258.234,274.303z"/>
	<path style="fill:#194F82;" d="M196.432,326.796H134.63c-6.012,0-10.925-4.848-10.925-10.925c0-6.077,4.848-10.925,10.925-10.925
		h61.802c6.012,0,10.925,4.848,10.925,10.925C207.357,321.948,202.444,326.796,196.432,326.796z"/>
	<path style="fill:#194F82;" d="M297.087,64.073h-30.772V49.722c0-6.012-4.849-10.925-10.925-10.925h-23.661
		c0.905-10.214-2.65-20.622-10.279-28.251c-13.576-13.899-35.556-14.222-50.295,0c-7.758,7.628-11.184,18.101-10.343,28.251h-23.661
		c-6.012,0-10.925,4.848-10.925,10.925v14.352H95.584c-18.036,0-32.711,14.675-32.711,32.711v263.046
		c0,18.036,14.675,32.711,32.711,32.711h201.374c18.036,0,32.711-14.675,32.711-32.711V96.849
		C329.798,78.748,315.188,64.073,297.087,64.073z M148.27,60.647h27.927c9.503-0.323,13.964-11.766,8.986-17.131
		c-3.814-5.495-3.168-12.8,1.616-17.519c5.236-5.172,14.222-5.236,19.459,0c4.719,4.719,5.301,12.024,1.552,17.455
		c-4.59,7.176-0.646,16.679,8.986,17.131h27.927v32.453H148.27V60.647z M308.012,359.831c0,6.012-4.848,10.925-10.925,10.925H95.778
		c-6.012,0-10.925-4.848-10.925-10.925V96.849c0-6.012,4.848-10.925,10.925-10.925h30.772v18.101
		c0,6.012,4.848,10.925,10.925,10.925h118.174c6.012,0,10.925-4.848,10.925-10.925V85.924h30.772
		c6.012,0,10.925,4.848,10.925,10.925v262.982H308.012z"/>
</g>
</svg>