<?xml version="1.0" ?>
<!-- Uploaded to: SVG Repo, www.svgrepo.com, Generator: SVG Repo Mixer Tools -->
<svg width="800px" height="800px" viewBox="0 0 512 512" id="Layer_1" version="1.1" xml:space="preserve" xmlns="http://www.w3.org/2000/svg" xmlns:xlink="http://www.w3.org/1999/xlink">
<style type="text/css">
	.st0{fill:#E6E6E6;}
	.st1{fill:#69C9C9;}
	.st2{fill:#4D5152;}
</style>
<path class="st0" d="M482,257.7c0-10.6-0.8-21.2-2.3-31.8l-61.4-17.3l5.4-19.3l19.5,5.5l22.8-23.4c-4-9.9-8.6-19.5-13.9-28.6  c-5.3-9.2-11.3-18-17.8-26.4l-28.2,7.2l-2.5,9.8l-19.4-4.9l12.6-49.4c-8.4-6.6-17.2-12.5-26.4-17.8c-9.2-5.3-18.8-10-28.6-13.9  l-45.7,44.6l-14-14.3l14.5-14.1l-8.9-31.5c-21-3-42.5-3-63.5,0l-7.9,28l7.2,7l-14,14.3l-36.5-35.6c-9.9,4-19.5,8.6-28.6,13.9  c-9.2,5.3-18,11.3-26.4,17.8l15.7,61.9l-19.4,4.9l-5-19.6l-31.7-8.1c-6.6,8.4-12.5,17.2-17.8,26.4c-5.3,9.2-10,18.8-13.9,28.6  l20.3,20.8l9.7-2.7l5.4,19.3l-49.1,13.8c-1.5,10.5-2.3,21.2-2.3,31.8c0,10.6,0.8,21.3,2.3,31.8l61.4,17.3l-5.4,19.3l-19.5-5.5  L46,340.6c4,9.9,8.6,19.5,13.9,28.6c5.3,9.2,11.3,18,17.8,26.4l28.2-7.2l2.5-9.8l19.4,4.9l-12.6,49.4c8.4,6.6,17.2,12.5,26.4,17.8  c9.2,5.3,18.8,10,28.6,13.9l45.7-44.6l14,14.3l-14.5,14.1l8.9,31.5c21,3,42.5,3,63.5,0l7.9-28l-7.2-7l14-14.3l36.5,35.6  c9.9-4,19.5-8.6,28.6-13.9c9.2-5.3,18-11.3,26.4-17.8l-15.7-61.9l19.4-4.9l5,19.6l31.7,8.1c6.6-8.4,12.5-17.2,17.8-26.4  c5.3-9.2,10-18.8,13.9-28.6l-20.3-20.8l-9.7,2.7l-5.4-19.3l49.1-13.8C481.2,278.9,482,268.3,482,257.7z M256,387.6  c-72.7,0-131.6-58.9-131.6-131.6S183.3,124.4,256,124.4S387.6,183.3,387.6,256S328.7,387.6,256,387.6z"/>
<circle class="st1" cx="256" cy="256" r="88.1"/>
<g>
<path class="st2" d="M256,114.1c-78.2,0-141.9,63.7-141.9,141.9c0,26.6,7.4,52.5,21.4,74.9l17-10.6c-12-19.3-18.3-41.5-18.3-64.3   c0-67.2,54.7-121.9,121.9-121.9c67.2,0,121.9,54.7,121.9,121.9c0,67.2-54.7,121.9-121.9,121.9c-22.8,0-45.1-6.3-64.3-18.3l-10.6,17   c22.4,14,48.3,21.4,74.9,21.4c78.2,0,141.9-63.7,141.9-141.9S334.2,114.1,256,114.1z"/>
<path class="st2" d="M163.5,335.4l-15.2,13c4.7,5.4,9.8,10.5,15.2,15.2l13-15.2C171.9,344.5,167.5,340.1,163.5,335.4z"/>
<path class="st2" d="M256,178.2c11.5,0,22.5,2.5,32.9,7.3l8.5-18.1c-13-6.1-26.9-9.2-41.3-9.2c-53.9,0-97.8,43.9-97.8,97.8   c0,53.9,43.9,97.8,97.8,97.8c53.9,0,97.8-43.9,97.8-97.8c0-14.4-3.1-28.3-9.2-41.3l-18.1,8.5c4.8,10.3,7.3,21.4,7.3,32.9   c0,42.9-34.9,77.8-77.8,77.8s-77.8-34.9-77.8-77.8S213.1,178.2,256,178.2z"/>
<path class="st2" d="M332.5,195.2c-4.6-5.8-9.9-11.1-15.7-15.7l-12.5,15.7c4.6,3.7,8.9,7.9,12.5,12.5L332.5,195.2z"/>
<path class="st2" d="M498.5,216.3l-1.1-6.2l-32.3-9.1l24.1-24.7l-2.2-5.9c-4.8-13-10.7-25.6-17.6-37.6c-6.9-12-14.9-23.4-23.7-34   l-4-4.9l-30,7.6l7.6-30l-4.9-4c-10.6-8.8-22.1-16.8-34-23.7c-12-6.9-24.6-12.8-37.6-17.6L337,24l-24,23.4l-9.4-33.3l-6.2-1.1   c-13.6-2.3-27.5-3.5-41.3-3.5c-13.8,0-27.7,1.2-41.3,3.5l-6.2,1.1l-8.4,29.7l-22.1-21.6l-5.9,2.2c-13,4.8-25.6,10.7-37.6,17.6   c-12,6.9-23.4,14.9-34,23.7l-4.9,4l8.3,32.5l-33.5-8.5l-4,4.9c-8.8,10.6-16.8,22.1-23.7,34c-6.9,12-12.8,24.6-17.6,37.6l-2.2,5.9   l21.6,22.1l-29.7,8.4l-1.1,6.2c-2.3,13.6-3.5,27.5-3.5,41.3s1.2,27.7,3.5,41.3l1.1,6.2l32.3,9.1l-24.1,24.7l2.2,5.9   c4.8,13,10.7,25.6,17.6,37.6c6.9,12,14.9,23.4,23.7,34l4,4.9l30-7.6l-7.6,30l4.9,4c10.6,8.8,22.1,16.8,34,23.7   c12,6.9,24.6,12.8,37.6,17.6l5.9,2.2l24-23.4l9.4,33.3l6.2,1.1c13.6,2.3,27.5,3.5,41.3,3.5c13.8,0,27.7-1.2,41.3-3.5l6.2-1.1   l8.4-29.7l22.1,21.6l5.9-2.2c13-4.8,25.6-10.7,37.6-17.6c12-6.9,23.4-14.9,34-23.7l4.9-4l-8.3-32.5l33.5,8.5l4-4.9   c8.8-10.6,16.8-22.1,23.7-34c6.9-12,12.8-24.6,17.6-37.6l2.2-5.9l-21.6-22.1l29.7-8.4l1.1-6.2c2.3-13.6,3.5-27.5,3.5-41.3   C502,243.9,500.8,229.9,498.5,216.3z M479.7,289.4l-49.1,13.8l5.4,19.3l9.7-2.7l20.3,20.8c-4,9.9-8.6,19.5-13.9,28.6   c-5.3,9.2-11.3,18-17.8,26.4l-31.7-8.1l-5-19.6l-19.4,4.9l15.7,61.9c-8.4,6.6-17.2,12.5-26.4,17.8c-9.2,5.3-18.8,10-28.6,13.9   l-36.5-35.6l-14,14.3l7.2,7l-7.9,28c-21,3-42.5,3-63.5,0l-8.9-31.5l14.5-14.1l-14-14.3l-45.7,44.6c-9.9-4-19.5-8.6-28.6-13.9   c-9.2-5.3-18-11.3-26.4-17.8l12.6-49.4l-19.4-4.9l-2.5,9.8l-28.2,7.2c-6.6-8.4-12.5-17.2-17.8-26.4c-5.3-9.2-10-18.8-13.9-28.6   l22.8-23.4l19.5,5.5l5.4-19.3l-61.4-17.3c-1.5-10.5-2.3-21.2-2.3-31.8c0-10.6,0.8-21.3,2.3-31.8l49.1-13.8l-5.4-19.3l-9.7,2.7   L46,171.4c4-9.9,8.6-19.5,13.9-28.6c5.3-9.2,11.3-18,17.8-26.4l31.7,8.1l5,19.6l19.4-4.9l-15.7-61.9c8.4-6.6,17.2-12.5,26.4-17.8   c9.2-5.3,18.8-10,28.6-13.9l36.5,35.6l14-14.3l-7.2-7l7.9-28c21-3,42.5-3,63.5,0l8.9,31.5l-14.5,14.1l14,14.3l45.7-44.6   c9.9,4,19.5,8.6,28.6,13.9c9.2,5.3,18,11.3,26.4,17.8l-12.6,49.4l19.4,4.9l2.5-9.8l28.2-7.2c6.6,8.4,12.5,17.2,17.8,26.4   c5.3,9.2,10,18.8,13.9,28.6l-22.8,23.4l-19.5-5.5l-5.4,19.3l61.4,17.3c1.5,10.5,2.3,21.2,2.3,31.8   C482,268.3,481.2,278.9,479.7,289.4z"/>
</g>
</svg>