<?xml version="1.0" encoding="iso-8859-1"?>
<!-- Uploaded to: SVG Repo, www.svgrepo.com, Generator: SVG Repo Mixer Tools -->
<svg version="1.1" id="Layer_1" xmlns="http://www.w3.org/2000/svg" xmlns:xlink="http://www.w3.org/1999/xlink" 
	 viewBox="0 0 512 512" xml:space="preserve">
<path style="fill:#0055B8;" d="M348.525,376.985c-7.284,0-14.567-2.779-20.125-8.336l-67.357-67.357
	c-11.115-11.114-11.115-29.134,0-40.249c11.114-11.113,29.134-11.113,40.248,0l67.357,67.357c11.113,11.114,11.113,29.134,0,40.249
	C363.091,374.206,355.809,376.985,348.525,376.985z"/>
<path style="fill:#333E48;" d="M466.464,512c-11.654,0-23.306-4.446-32.199-13.337L329.569,393.966
	c-17.785-17.783-17.785-46.615,0-64.397c17.783-17.783,46.614-17.783,64.397,0l104.697,104.697
	c17.783,17.784,17.783,46.615,0,64.398C489.77,507.554,478.118,512,466.464,512z"/>
<rect x="412.526" y="375.391" transform="matrix(-0.7071 -0.7071 0.7071 -0.7071 420.8835 1016.1916)" style="fill:#FF9E16;" width="16.752" height="91.073"/>
<circle style="fill:#0071CE;" cx="178.731" cy="178.731" r="178.731"/>
<circle style="fill:#FFFFFF;" cx="178.731" cy="178.731" r="115.99"/>
<g>
	<path style="fill:#4BB6AA;" d="M269.454,106.47L106.47,269.454c15.352,12.243,33.878,20.673,54.15,23.851L293.305,160.62
		C290.127,140.349,281.697,121.824,269.454,106.47z"/>
	<path style="fill:#4BB6AA;" d="M62.752,177.975L177.975,62.751C114.515,63.157,63.157,114.515,62.752,177.975z"/>
</g>
</svg>